<svg xmlns="http://www.w3.org/2000/svg" viewBox="0 0 1080 1920" width="1080" height="1920">
  <defs>
    <linearGradient id="frameFill" x1="0" y1="0" x2="1" y2="1">
      <stop offset="0%" stop-color="#111827"/>
      <stop offset="100%" stop-color="#7c3aed"/>
    </linearGradient>
    <linearGradient id="edgeGlow" x1="0" y1="0" x2="0" y2="1">
      <stop offset="0%" stop-color="#fda4af" stop-opacity="0.9"/>
      <stop offset="100%" stop-color="#fda4af" stop-opacity="0.25"/>
    </linearGradient>
  </defs>

  <!-- Frame ring with transparent center cutout for user photo placement -->
  <path d="M0 0H1080V1920H0Z M140 260H940V1660H140Z" fill="url(#frameFill)" fill-rule="evenodd"/>

  <rect x="28" y="28" width="1024" height="1864" rx="64" fill="none" stroke="url(#edgeGlow)" stroke-width="18"/>
  <rect x="140" y="260" width="800" height="1400" rx="36" fill="none" stroke="#fda4af" stroke-opacity="0.75" stroke-width="12"/>

  <rect x="48" y="300" width="52" height="1320" rx="18" fill="#7c3aed" opacity="0.42"/>
  <rect x="980" y="300" width="52" height="1320" rx="18" fill="#7c3aed" opacity="0.42"/>

  <g opacity="0.96">
    <circle cx="220" cy="144" r="40" fill="#22d3ee" opacity="0.7"/>
    <circle cx="540" cy="136" r="52" fill="#f472b6" opacity="0.62"/>
    <circle cx="860" cy="144" r="40" fill="#f59e0b" opacity="0.7"/>
    <rect x="230" y="1710" width="620" height="20" rx="10" fill="#fbcfe8" opacity="0.55"/>
    <rect x="280" y="1744" width="520" height="16" rx="8" fill="#bfdbfe" opacity="0.5"/>
  </g>

  <text x="540" y="1852" text-anchor="middle" font-size="48" font-family="Verdana" fill="#fda4af">Abstract Frame</text>
</svg>
