<svg xmlns="http://www.w3.org/2000/svg" viewBox="0 0 1080 1920" width="1080" height="1920">
  <defs>
    <linearGradient id="frameFill" x1="0" y1="0" x2="1" y2="1">
      <stop offset="0%" stop-color="#111827"/>
      <stop offset="100%" stop-color="#374151"/>
    </linearGradient>
    <linearGradient id="edgeGlow" x1="0" y1="0" x2="0" y2="1">
      <stop offset="0%" stop-color="#f9fafb" stop-opacity="0.9"/>
      <stop offset="100%" stop-color="#f9fafb" stop-opacity="0.25"/>
    </linearGradient>
  </defs>

  <!-- Frame ring with transparent center cutout for user photo placement -->
  <path d="M0 0H1080V1920H0Z M140 260H940V1660H140Z" fill="url(#frameFill)" fill-rule="evenodd"/>

  <rect x="28" y="28" width="1024" height="1864" rx="64" fill="none" stroke="url(#edgeGlow)" stroke-width="18"/>
  <rect x="140" y="260" width="800" height="1400" rx="36" fill="none" stroke="#f9fafb" stroke-opacity="0.75" stroke-width="12"/>

  <rect x="48" y="300" width="52" height="1320" rx="18" fill="#374151" opacity="0.42"/>
  <rect x="980" y="300" width="52" height="1320" rx="18" fill="#374151" opacity="0.42"/>

  <g opacity="0.96">
    <circle cx="540" cy="150" r="66" fill="none" stroke="#f3f4f6" stroke-width="8"/>
    <path d="M474 150 A66 66 0 0 1 606 150" fill="none" stroke="#ef4444" stroke-width="8"/>
    <path d="M540 84 L540 216 M474 150 L606 150" stroke="#3b82f6" stroke-width="6"/>
    <path d="M420 1752 L660 1752" stroke="#9ca3af" stroke-width="10" stroke-linecap="round"/>
    <rect x="500" y="1696" width="80" height="54" rx="14" fill="#9ca3af" opacity="0.65"/>
  </g>

  <text x="540" y="1852" text-anchor="middle" font-size="48" font-family="Verdana" fill="#f9fafb">Sports Frame</text>
</svg>
